<svg width="48" height="48" viewBox="0 0 48 48" fill="none" xmlns="http://www.w3.org/2000/svg">
<circle cx="24" cy="24" r="24" fill="#F8F9FB"/>
<path d="M24.0006 14.1646C22.471 12.7726 20.4689 12.0001 18.3909 12C17.291 12.0011 16.2023 12.2175 15.1873 12.6367C14.1722 13.0559 13.251 13.6696 12.4765 14.4425C9.17332 17.7255 9.17472 22.8606 12.4793 26.1297L22.7723 36.3164C23.0109 36.7319 23.4714 37 24.0006 37C24.2179 36.9979 24.4317 36.9454 24.6248 36.8467C24.8179 36.748 24.9849 36.6059 25.1125 36.4318L35.5219 26.1297C38.8265 22.8592 38.8265 17.7255 35.5191 14.4369C34.745 13.6654 33.8245 13.053 32.8105 12.6348C31.7964 12.2166 30.7089 12.0008 29.6103 12C27.5324 12.0003 25.5304 12.7729 24.0006 14.1646ZM33.5341 16.4015C35.7282 18.5841 35.7296 21.9936 33.5369 24.1652L24.0006 33.603L14.4644 24.1652C12.2716 21.9936 12.273 18.5841 14.4616 16.407C15.5285 15.3567 16.9239 14.7787 18.3909 14.7787C19.8579 14.7787 21.2477 15.3567 22.3062 16.4042L23.0081 17.0989C23.1384 17.2281 23.2931 17.3305 23.4634 17.4004C23.6337 17.4703 23.8162 17.5063 24.0006 17.5063C24.185 17.5063 24.3675 17.4703 24.5379 17.4004C24.7082 17.3305 24.8629 17.2281 24.9931 17.0989L25.695 16.4042C27.8176 14.3077 31.4143 14.3133 33.5341 16.4015Z" fill="#1E232A" fill-opacity="0.63"/>
</svg>
