<svg width="20" height="19" viewBox="0 0 20 19" fill="none" xmlns="http://www.w3.org/2000/svg">
<path d="M9.97313 1.59499C8.88353 0.593091 7.45733 0.0370339 5.97713 0.0369873C5.19366 0.037803 4.4181 0.193547 3.69506 0.495256C2.97203 0.796965 2.31579 1.23868 1.76413 1.79499C-0.588875 4.15799 -0.587875 7.85399 1.76613 10.207L9.09813 17.539C9.26813 17.838 9.59613 18.031 9.97313 18.031C10.1279 18.0295 10.2802 17.9917 10.4178 17.9207C10.5553 17.8496 10.6743 17.7473 10.7651 17.622L18.1801 10.207C20.5341 7.85299 20.5341 4.15799 18.1781 1.79099C17.6267 1.2357 16.971 0.794884 16.2487 0.49387C15.5264 0.192857 14.7517 0.0375869 13.9691 0.0369873C12.489 0.0372293 11.0628 0.59326 9.97313 1.59499Z" fill="#ED5656"/>
</svg>
