<svg width="24" height="30" viewBox="0 0 24 30" fill="none" xmlns="http://www.w3.org/2000/svg">
<path d="M11.9456 0.610001C8.94802 0.613537 6.07425 1.80588 3.95465 3.92548C1.83505 6.04508 0.642708 8.91885 0.639172 11.9164C0.635582 14.366 1.43574 16.7492 2.9169 18.7003C2.9169 18.7003 3.22526 19.1063 3.27562 19.1649L11.9456 29.39L20.6197 19.1597C20.6649 19.1052 20.9743 18.7003 20.9743 18.7003L20.9753 18.6972C22.4557 16.7469 23.2555 14.3649 23.252 11.9164C23.2485 8.91885 22.0561 6.04508 19.9365 3.92548C17.8169 1.80588 14.9431 0.613537 11.9456 0.610001ZM11.9456 16.0278C11.1324 16.0278 10.3375 15.7867 9.6614 15.3349C8.98528 14.8832 8.45831 14.2411 8.14712 13.4898C7.83594 12.7385 7.75452 11.9119 7.91316 11.1143C8.0718 10.3168 8.46338 9.58419 9.03837 9.0092C9.61336 8.43421 10.3459 8.04263 11.1435 7.88399C11.941 7.72535 12.7677 7.80677 13.519 8.11795C14.2702 8.42914 14.9123 8.95611 15.3641 9.63223C15.8159 10.3083 16.057 11.1033 16.057 11.9164C16.0556 13.0064 15.622 14.0514 14.8513 14.8221C14.0805 15.5929 13.0356 16.0265 11.9456 16.0278Z" fill="#5041BC"/>
</svg>
