<svg width="20" height="19" viewBox="0 0 20 19" fill="none" xmlns="http://www.w3.org/2000/svg">
<path d="M9.97313 1.59499C8.88353 0.593091 7.45733 0.0370339 5.97713 0.0369873C5.19366 0.037803 4.4181 0.193547 3.69506 0.495256C2.97203 0.796965 2.31579 1.23868 1.76413 1.79499C-0.588875 4.15799 -0.587875 7.85399 1.76613 10.207L9.09813 17.539C9.26813 17.838 9.59613 18.031 9.97313 18.031C10.1279 18.0295 10.2802 17.9917 10.4178 17.9207C10.5553 17.8496 10.6743 17.7473 10.7651 17.622L18.1801 10.207C20.5341 7.85299 20.5341 4.15799 18.1781 1.79099C17.6267 1.2357 16.971 0.794884 16.2487 0.49387C15.5264 0.192857 14.7517 0.0375869 13.9691 0.0369873C12.489 0.0372293 11.0628 0.59326 9.97313 1.59499ZM16.7641 3.20499C18.3271 4.77599 18.3281 7.22999 16.7661 8.79299L9.97313 15.586L3.18012 8.79299C1.61812 7.22999 1.61913 4.77599 3.17813 3.20899C3.93813 2.45299 4.93213 2.03699 5.97713 2.03699C7.02213 2.03699 8.01213 2.45299 8.76613 3.20699L9.26613 3.70699C9.35891 3.79993 9.46912 3.87367 9.59043 3.92398C9.71175 3.97429 9.84179 4.00019 9.97313 4.00019C10.1045 4.00019 10.2345 3.97429 10.3558 3.92398C10.4771 3.87367 10.5873 3.79993 10.6801 3.70699L11.1801 3.20699C12.6921 1.69799 15.2541 1.70199 16.7641 3.20499Z" fill="#5041BC"/>
</svg>
